<svg xmlns="http://www.w3.org/2000/svg" viewBox="0 0 64 64">
  <rect width="64" height="64" rx="14" fill="#24776b"/>
  <path d="M12 10h40a2 2 0 0 1 2 2v40a2 2 0 0 1-2 2H12a2 2 0 0 1-2-2V12a2 2 0 0 1 2-2z" fill="#2b8a7d"/>
  <path d="M21 14h17l9 9v27H21z" fill="#fffdf6"/>
  <path d="M38 14v10h9z" fill="#d9ddd5"/>
  <path d="M26 32h4l3.4 4.6L37 32h4v13h-4v-7.2l-3.6 4.7h-.2L30 37.9V45h-4z" fill="#24776b"/>
  <path d="M26 25h16" stroke="#24776b" stroke-width="3" stroke-linecap="round" opacity=".95"/>
</svg>
